<?xml version="1.0" encoding="utf-8" ?>
<svg baseProfile="full" height="100%" version="1.1" viewBox="0,0,1000,300" width="100%" xmlns="http://www.w3.org/2000/svg" xmlns:ev="http://www.w3.org/2001/xml-events" xmlns:xlink="http://www.w3.org/1999/xlink"><defs /><rect fill="white" height="300" width="1000" x="0" y="0" /><path d="M0,0 M370.0908203125,48.149635314941406 L369.9748229980469,48.821746826171875 L369.792236328125,50.09424591064453 L369.5517883300781,51.96835708618164 L369.2954406738281,54.25663757324219 L369.0332336425781,56.844974517822266 L368.796875,59.582088470458984 L368.6298828125,62.317630767822266 L368.57696533203125,64.85310363769531 L368.63604736328125,66.9682388305664 L368.78460693359375,68.50828552246094 L368.940185546875,69.41468811035156 L369.0491638183594,69.80391693115234 M368.4164123535156,46.04389953613281 L368.4161682128906,46.45539093017578 L368.47021484375,47.343719482421875 L368.63385009765625,48.744422912597656 L368.9801940917969,50.50090026855469 L369.552001953125,52.35985565185547 L370.35345458984375,54.05753707885742 L371.3581848144531,55.37504196166992 L372.529296875,56.16009521484375 L373.8252868652344,56.32594299316406 L375.2416076660156,55.86091995239258 L376.7571105957031,54.79939270019531 L378.30877685546875,53.253936767578125 L379.7906494140625,51.397247314453125 L381.0879211425781,49.46314239501953 L382.10723876953125,47.6876220703125 L382.82952880859375,46.270904541015625 L383.2758483886719,45.34740447998047 L383.49017333984375,45.0 L383.50543212890625,45.282249450683594 L383.341064453125,46.251705169677734 L383.0084228515625,47.90480041503906 L382.5491638183594,50.15621566772461 L382.034912109375,52.84112548828125 L381.5653076171875,55.74617004394531 L381.233642578125,58.65345001220703 L381.09881591796875,61.38322830200195 L381.1462097167969,63.78203201293945 L381.3619079589844,65.72445678710938 L381.7154235839844,67.13617706298828 L382.1665954589844,68.01144409179688 L382.5777587890625,68.43805694580078 L382.8674011230469,68.57327270507812 M393.63568115234375,57.78795623779297 L393.38348388671875,57.41283416748047 L392.8663330078125,56.90472412109375 L392.048095703125,56.463623046875 L390.9700927734375,56.367820739746094 L389.70635986328125,56.7545280456543 L388.365234375,57.6722526550293 L387.0863342285156,59.06212615966797 L386.01153564453125,60.79319763183594 L385.27886962890625,62.6776008605957 L384.9734191894531,64.47996520996094 L385.15545654296875,66.00033569335938 L385.79638671875,67.06700134277344 L386.8110656738281,67.57647705078125 L388.06121826171875,67.4718017578125 L389.40399169921875,66.76821899414062 L390.7003173828125,65.53791046142578 L391.8697204589844,63.92873764038086 L392.8349609375,62.1229133605957 L393.55419921875,60.35263442993164 L394.0345153808594,58.81669616699219 L394.3009033203125,57.67727279663086 L394.4049377441406,57.04153823852539 L394.41619873046875,56.967864990234375 L394.3626708984375,57.46025466918945 L394.26007080078125,58.512786865234375 L394.1472473144531,60.03564453125 L394.03485107421875,61.87053298950195 L393.9880676269531,63.815673828125 L394.06109619140625,65.63404083251953 L394.27545166015625,67.12701416015625 L394.52838134765625,68.12384033203125 L394.7388916015625,68.6330337524414 M400.8009338378906,46.36009979248047 L400.7565612792969,46.84144973754883 L400.68853759765625,47.804901123046875 L400.6176452636719,49.28449249267578 L400.5604553222656,51.16120147705078 L400.52734375,53.33492660522461 L400.517333984375,55.68782424926758 L400.5296936035156,58.096923828125 L400.5680847167969,60.43962860107422 L400.6370544433594,62.59001922607422 L400.7218017578125,64.44044494628906 L400.80731201171875,65.92793273925781 L400.9038391113281,66.98280334472656 L401.0330505371094,67.57067108154297 L401.2216796875,67.72892761230469 L401.4159851074219,67.63662719726562 L401.5682373046875,67.47106170654297 M405.648193359375,58.35862350463867 L405.2077941894531,58.325828552246094 L404.4261169433594,58.398231506347656 L403.3612976074219,58.674373626708984 L402.2137145996094,59.22138214111328 L401.1460876464844,60.01228713989258 L400.331787109375,60.96302795410156 L399.91357421875,61.983192443847656 L399.98126220703125,62.989646911621094 L400.5628662109375,63.90178298950195 L401.60595703125,64.65470886230469 L403.0099182128906,65.2108383178711 L404.65087890625,65.52125549316406 L406.36614990234375,65.58454132080078 L407.97833251953125,65.42096710205078 L409.1904296875,65.17423248291016 L409.8939208984375,64.96235656738281 M411.08770751953125,59.486167907714844 L411.1507568359375,59.786407470703125 L411.25341796875,60.39396667480469 L411.3766784667969,61.324851989746094 L411.49676513671875,62.48435592651367 L411.6080017089844,63.77366638183594 L411.71063232421875,65.0596694946289 L411.8275146484375,66.2373275756836 L411.97723388671875,67.139404296875 L412.16998291015625,67.63699340820312 L412.41033935546875,67.6805419921875 L412.629150390625,67.46419525146484 L412.77996826171875,67.19103240966797 M411.70770263671875,49.6626091003418 L411.6893005371094,49.632545471191406 L411.6896057128906,49.628746032714844 L411.70538330078125,49.64842987060547 L411.73345947265625,49.68882369995117 M416.1808166503906,58.491817474365234 L416.162109375,58.373741149902344 L416.1383056640625,58.308311462402344 L416.112060546875,58.439849853515625 L416.0990905761719,58.92726516723633 L416.10302734375,59.79322052001953 L416.123779296875,60.98541259765625 L416.15509033203125,62.38971710205078 L416.20635986328125,63.85490417480469 L416.2825927734375,65.22261810302734 L416.39483642578125,66.37618255615234 L416.53448486328125,67.20054626464844 L416.68023681640625,67.61970520019531 L416.82574462890625,67.58980560302734 L417.00640869140625,67.0811538696289 L417.2813415527344,66.11092376708984 L417.690185546875,64.78400421142578 L418.2523193359375,63.23093032836914 L418.956787109375,61.614593505859375 L419.77862548828125,60.09347915649414 L420.6882019042969,58.79172134399414 L421.64801025390625,57.80851745605469 L422.5821533203125,57.23090744018555 L423.4267272949219,57.10783767700195 L424.11859130859375,57.458133697509766 L424.6182556152344,58.26087951660156 L424.9139404296875,59.43901062011719 L425.02703857421875,60.87178039550781 L425.0122985839844,62.44942855834961 L424.951416015625,64.03814697265625 L424.9111328125,65.5129623413086 L424.9090881347656,66.62261962890625 L424.93206787109375,67.27584075927734 M435.4652404785156,60.87620544433594 L435.37725830078125,60.40248489379883 L435.08526611328125,59.71617126464844 L434.4906005859375,58.991844177246094 L433.5587158203125,58.51111602783203 L432.3368835449219,58.39043045043945 L430.93511962890625,58.697608947753906 L429.5299072265625,59.432395935058594 L428.2960510253906,60.53525161743164 L427.4342956542969,61.871734619140625 L427.118408203125,63.252891540527344 L427.4132080078125,64.48221588134766 L428.2882995605469,65.39012908935547 L429.6473388671875,65.87098693847656 L431.3007507324219,65.86050415039062 L433.072021484375,65.36139678955078 L434.79803466796875,64.43380737304688 L436.3054504394531,63.19680404663086 L437.4541015625,61.804718017578125 L438.17572021484375,60.43525695800781 L438.4451904296875,59.24513244628906 L438.31646728515625,58.35914611816406 L437.89495849609375,57.881900787353516 L437.3112487792969,57.883602142333984 L436.6797180175781,58.402523040771484 L436.13153076171875,59.44569396972656 L435.77679443359375,60.96678924560547 L435.6986083984375,62.88624954223633 L435.94195556640625,65.11280059814453 L436.4956359863281,67.54338073730469 L437.2596435546875,70.07473754882812 L438.1136779785156,72.60186767578125 L438.91162109375,74.99398040771484 L439.5311279296875,77.12998962402344 L439.88531494140625,78.91046905517578 L439.9180603027344,80.27613830566406 L439.589599609375,81.20382690429688 L438.89727783203125,81.70682525634766 L437.8568115234375,81.80323791503906 L436.5262145996094,81.53044891357422 L434.99932861328125,80.9540023803711 L433.40130615234375,80.16082763671875 L431.87591552734375,79.24532318115234 L430.56256103515625,78.29972839355469 L429.6053466796875,77.34586334228516 L429.08148193359375,76.39745330810547 L428.98919677734375,75.47879791259766 L429.13885498046875,74.75067138671875 L429.34228515625,74.29552459716797 M453.24554443359375,57.51951599121094 L453.2069091796875,57.69533920288086 L453.15704345703125,58.12337112426758 L453.11669921875,58.87730407714844 L453.1003112792969,59.95318603515625 L453.10296630859375,61.27992248535156 L453.1080017089844,62.76173782348633 L453.1024169921875,64.2891845703125 L453.0787353515625,65.73736572265625 L453.0455627441406,66.98428344726562 L453.0101013183594,67.9259033203125 L452.9881896972656,68.45698547363281 L452.9662780761719,68.51497650146484 L452.94940185546875,68.06565856933594 L452.9661865234375,67.10478210449219 L453.0635986328125,65.6939926147461 L453.2987976074219,63.95439910888672 L453.72052001953125,62.03245544433594 L454.3203430175781,60.10015869140625 L455.07781982421875,58.31918716430664 L455.946044921875,56.823970794677734 L456.86541748046875,55.73180389404297 L457.7864074707031,55.12744903564453 L458.6649169921875,55.0559196472168 L459.446533203125,55.53218460083008 L460.0915832519531,56.53238296508789 L460.5567932128906,57.9642333984375 L460.82122802734375,59.67600631713867 L460.91064453125,61.45573043823242 L460.87762451171875,63.07365798950195 L460.79705810546875,64.3343734741211 L460.74847412109375,65.09790802001953 L460.7806396484375,65.27932739257812 L460.93402099609375,64.87712097167969 L461.2345275878906,63.93541717529297 L461.7120361328125,62.592010498046875 L462.3909912109375,61.038055419921875 L463.26641845703125,59.460975646972656 L464.27960205078125,58.02665710449219 L465.3580627441406,56.8752326965332 L466.3915100097656,56.08872604370117 L467.3002014160156,55.75790786743164 L468.02532958984375,55.93778610229492 L468.5442199707031,56.63630294799805 L468.8448486328125,57.805667877197266 L468.96112060546875,59.340179443359375 L468.9273681640625,61.07127380371094 L468.806640625,62.82483673095703 L468.697998046875,64.39938354492188 L468.69036865234375,65.6257553100586 L468.82232666015625,66.40522766113281 L469.01873779296875,66.77820587158203 L469.19097900390625,66.8746337890625 M472.82476806640625,56.46577453613281 L472.8096923828125,56.49854278564453 L472.79498291015625,56.722354888916016 L472.79473876953125,57.250362396240234 L472.8294677734375,58.12849426269531 L472.9254150390625,59.273094177246094 L473.103271484375,60.56233215332031 L473.3767395019531,61.83940505981445 L473.74078369140625,62.98824691772461 L474.1780090332031,63.89716339111328 L474.6753845214844,64.48033142089844 L475.24017333984375,64.6667709350586 L475.885986328125,64.40508270263672 L476.6371765136719,63.68256378173828 L477.48028564453125,62.56113815307617 L478.3775634765625,61.162837982177734 L479.2692565917969,59.671348571777344 L480.0748291015625,58.2863655090332 L480.7205810546875,57.15056610107422 L481.1607666015625,56.3560791015625 L481.37420654296875,55.946624755859375 L481.37286376953125,55.94342803955078 L481.18475341796875,56.378662109375 L480.8390197753906,57.298126220703125 L480.37725830078125,58.692298889160156 L479.84942626953125,60.5210075378418 L479.3059387207031,62.70804977416992 L478.787109375,65.14675903320312 L478.3028564453125,67.73149108886719 L477.853759765625,70.3675765991211 L477.4256286621094,72.9385986328125 L477.0115966796875,75.34404754638672 L476.6162109375,77.49983215332031 L476.24871826171875,79.31625366210938 L475.91253662109375,80.72859954833984 L475.62115478515625,81.70877838134766 L475.37066650390625,82.23570251464844 L475.16497802734375,82.35676574707031 L475.01708984375,82.1783676147461 L474.9302673339844,81.89958190917969 L474.8933410644531,81.6708984375 M493.009765625,57.30720520019531 L492.99200439453125,57.270111083984375 L492.96722412109375,57.35152053833008 L492.9278259277344,57.70611572265625 L492.8594055175781,58.484405517578125 L492.73565673828125,59.72843933105469 L492.57098388671875,61.371131896972656 L492.4209899902344,63.246826171875 L492.3800048828125,65.14027404785156 L492.544677734375,66.82567596435547 L492.9529113769531,68.10533905029297 L493.59161376953125,68.84483337402344 L494.4061279296875,68.96426391601562 L495.3343505859375,68.45935821533203 L496.31488037109375,67.38442993164062 L497.29632568359375,65.86897277832031 L498.19390869140625,64.09066009521484 L498.94580078125,62.26142501831055 L499.49755859375,60.57777786254883 L499.8505859375,59.200042724609375 L500.03057861328125,58.227352142333984 L500.093505859375,57.725990295410156 L500.0792236328125,57.7364387512207 L500.0321350097656,58.28123474121094 L499.96826171875,59.350799560546875 L499.9308776855469,60.85554504394531 L499.95977783203125,62.6280403137207 L500.11566162109375,64.43683624267578 L500.45648193359375,66.04927825927734 L501.01470947265625,67.27889251708984 L501.758056640625,68.0112075805664 L502.6422424316406,68.19215393066406 L503.5926208496094,67.82424926757812 L504.548828125,66.95175170898438 L505.46209716796875,65.66958618164062 L506.27593994140625,64.10406494140625 L506.918212890625,62.39349365234375 L507.3486022949219,60.67567825317383 L507.563232421875,59.07697677612305 L507.6014099121094,57.71354293823242 L507.5291748046875,56.73299789428711 L507.40985107421875,56.22833251953125 L507.28729248046875,56.20624923706055 L507.1957702636719,56.445335388183594 L507.147216796875,56.72230911254883 M517.390625,60.44992446899414 L517.2041015625,59.9778938293457 L516.7890625,59.280006408691406 L516.08544921875,58.537986755371094 L515.1005859375,58.05596923828125 L513.87646484375,57.98398971557617 L512.4996337890625,58.40726089477539 L511.0993347167969,59.30550765991211 L509.85137939453125,60.602134704589844 L508.92645263671875,62.132720947265625 L508.4620666503906,63.691585540771484 L508.533935546875,65.0713882446289 L509.124755859375,66.09480285644531 L510.15765380859375,66.63548278808594 L511.5277404785156,66.63674926757812 L513.083740234375,66.0972671508789 L514.6656494140625,65.08760833740234 L516.12646484375,63.745635986328125 L517.3320922851562,62.24707794189453 L518.1909790039062,60.77720260620117 L518.7149047851562,59.50304412841797 L518.9389038085938,58.533748626708984 L518.9370727539062,57.941322326660156 L518.802978515625,57.783103942871094 L518.5911865234375,58.100372314453125 L518.330322265625,58.91415786743164 L518.0907592773438,60.171085357666016 L517.91162109375,61.73065948486328 L517.9010009765625,63.405906677246094 L518.14892578125,64.99066925048828 L518.666259765625,66.31513214111328 L519.2298583984375,67.21704864501953 L519.6682739257812,67.69053649902344 M523.7610473632812,59.1881103515625 L523.6905517578125,59.179168701171875 L523.5797119140625,59.337955474853516 L523.4537963867188,59.79767608642578 L523.3724365234375,60.6207389831543 L523.3786010742188,61.70485305786133 L523.5374755859375,62.890289306640625 L523.8779296875,63.983097076416016 L524.4212646484375,64.838623046875 L525.1619873046875,65.35490417480469 L526.080078125,65.46539306640625 L527.11669921875,65.132080078125 L528.2215576171875,64.3824691772461 L529.3197631835938,63.295066833496094 L530.3246459960938,62.023677825927734 L531.177490234375,60.74605178833008 L531.8482055664062,59.628257751464844 L532.3126220703125,58.78738784790039 L532.5823364257812,58.30351257324219 L532.6729736328125,58.22779083251953 L532.59130859375,58.608638763427734 L532.380615234375,59.46482467651367 L532.1118774414062,60.781654357910156 L531.8624267578125,62.50928497314453 L531.6956787109375,64.5725326538086 L531.6285400390625,66.8902359008789 L531.6163940429688,69.3815689086914 L531.580078125,71.93890380859375 L531.4402465820312,74.4349594116211 L531.1464233398438,76.74215698242188 L530.6666870117188,78.74077606201172 L530.0044555664062,80.34004974365234 L529.1700439453125,81.49838256835938 L528.193359375,82.20793151855469 L527.1188354492188,82.48539733886719 L526.0142822265625,82.37785339355469 L524.958984375,81.88045501708984 L524.052734375,81.03129577636719 L523.3660278320312,79.92958068847656 L522.947021484375,78.92601776123047 L522.7572021484375,78.24211883544922 M556.6505126953125,60.72417449951172 L556.490478515625,60.31074523925781 L556.0964965820312,59.68317413330078 L555.3787231445312,58.983943939208984 L554.31689453125,58.473716735839844 L552.9467163085938,58.29146194458008 L551.3773803710938,58.54372024536133 L549.776123046875,59.264427185058594 L548.3047485351562,60.42301940917969 L547.1346435546875,61.90973663330078 L546.389892578125,63.547298431396484 L546.1544189453125,65.12348937988281 L546.4472045898438,66.44489288330078 L547.2469482421875,67.35292053222656 L548.4526977539062,67.72863006591797 L549.966552734375,67.51880645751953 L551.6533813476562,66.69364929199219 L553.39208984375,65.26283264160156 L555.0787353515625,63.28683853149414 L556.6503295898438,60.86827850341797 L558.0454711914062,58.15864562988281 L559.2359619140625,55.362030029296875 L560.1887817382812,52.68857955932617 L560.87158203125,50.35112380981445 L561.290771484375,48.491607666015625 L561.4852294921875,47.19206619262695 L561.5032958984375,46.48733139038086 L561.4014282226562,46.39241027832031 L561.2081298828125,46.926849365234375 L560.9310302734375,48.12897872924805 L560.5980224609375,49.940948486328125 L560.2504272460938,52.242183685302734 L559.946533203125,54.85248565673828 L559.7486572265625,57.56263732910156 L559.6839599609375,60.1754150390625 L559.75634765625,62.538238525390625 L559.9968872070312,64.49593353271484 L560.4041137695312,65.936767578125 L560.9638671875,66.83071899414062 L561.497802734375,67.25991821289062 L561.8772583007812,67.38517761230469 M570.6024169921875,59.32069778442383 L570.4801025390625,58.98046875 L570.1700439453125,58.531761169433594 L569.6045532226562,58.142906188964844 L568.7841796875,58.0617790222168 L567.7608642578125,58.37637710571289 L566.6400756835938,59.104190826416016 L565.55859375,60.18587875366211 L564.6531982421875,61.522945404052734 L564.05859375,62.970211029052734 L563.8828735351562,64.38323974609375 L564.1759033203125,65.60722351074219 L564.9208984375,66.50927734375 L566.0350952148438,66.9965591430664 L567.3782958984375,67.00257110595703 L568.78173828125,66.50286102294922 L570.0626220703125,65.53289794921875 L571.0668334960938,64.17462921142578 L571.6837768554688,62.57367706298828 L571.8704833984375,60.91400146484375 L571.6492309570312,59.3781623840332 L571.1181030273438,58.116825103759766 L570.420654296875,57.21577835083008 L569.8097534179688,56.69142532348633 L569.4185180664062,56.46544647216797 M575.4161987304688,56.406497955322266 L575.3236083984375,56.737640380859375 L575.1593017578125,57.404075622558594 L574.9453735351562,58.439422607421875 L574.7301635742188,59.77195739746094 L574.5707397460938,61.32817840576172 L574.536376953125,62.980224609375 L574.6629028320312,64.56834411621094 L574.9775390625,65.9150161743164 L575.4827270507812,66.84819030761719 L576.1444091796875,67.23796081542969 L576.940673828125,67.0212173461914 L577.845458984375,66.19570922851562 L578.8142700195312,64.84991455078125 L579.7864379882812,63.149906158447266 L580.6796875,61.31651306152344 L581.4048461914062,59.58909225463867 L581.908203125,58.1656494140625 L582.1802978515625,57.18608093261719 L582.2547607421875,56.72406005859375 L582.180908203125,56.80769348144531 L582.003662109375,57.43681335449219 L581.7758178710938,58.580528259277344 L581.57568359375,60.121856689453125 L581.4948120117188,61.884952545166016 L581.6262817382812,63.62497329711914 L582.0197143554688,65.11546325683594 L582.6571655273438,66.18456268310547 L583.47509765625,66.74308776855469 L584.406982421875,66.75473022460938 L585.3846435546875,66.24494934082031 L586.3502197265625,65.267333984375 L587.23046875,63.928157806396484 L587.9449462890625,62.3656005859375 L588.4246826171875,60.73891067504883 L588.6488647460938,59.19499588012695 L588.661376953125,57.88077926635742 L588.5502319335938,56.905357360839844 L588.4111328125,56.32006072998047 L588.3111572265625,56.0640983581543 L588.2669677734375,56.01585006713867 M593.8594970703125,56.8289794921875 L593.800048828125,56.83692169189453 L593.6621704101562,56.9973258972168 L593.423828125,57.441505432128906 L593.103515625,58.25923538208008 L592.7421875,59.428470611572266 L592.3873291015625,60.86751174926758 L592.1011352539062,62.434207916259766 L591.9183959960938,63.95882034301758 L591.8411254882812,65.2900161743164 L591.853759765625,66.29741668701172 L591.93212890625,66.89159393310547 L592.052734375,67.02044677734375 L592.237060546875,66.65827178955078 L592.5145263671875,65.82039642333984 L592.91259765625,64.59842681884766 L593.4450073242188,63.13170623779297 L594.1287231445312,61.58744812011719 L594.960693359375,60.09714126586914 L595.9458618164062,58.773406982421875 L597.0571899414062,57.70268249511719 L598.2398681640625,56.96494674682617 L599.3983154296875,56.60686492919922 L600.4453735351562,56.656455993652344 L601.2899169921875,57.0861930847168 L601.8782348632812,57.86335372924805 L602.1796875,58.92488098144531 L602.2252197265625,60.206329345703125 L602.064208984375,61.60151290893555 L601.7890625,63.0001106262207 L601.4865112304688,64.2841567993164 L601.2417602539062,65.38678741455078 L601.1456298828125,66.20917510986328 L601.2633056640625,66.69843292236328 L601.5987548828125,66.81475067138672 L601.9906005859375,66.69976806640625 L602.2987670898438,66.5084457397461 M609.5523681640625,47.311378479003906 L609.63037109375,47.172183990478516 L609.7099609375,47.08537292480469 L609.7601318359375,47.215065002441406 L609.7305908203125,47.725990295410156 L609.6463623046875,48.66989517211914 L609.5233154296875,50.01921844482422 L609.3792724609375,51.694488525390625 L609.2188720703125,53.61886978149414 L609.0560302734375,55.70511245727539 L608.8796997070312,57.851104736328125 L608.7108154296875,59.96041488647461 L608.5634155273438,61.919044494628906 L608.4619140625,63.60847091674805 L608.4388427734375,64.9554672241211 L608.470703125,65.84642028808594 L608.5191650390625,66.30767822265625 M605.6868896484375,58.091941833496094 L605.838623046875,58.07716751098633 L606.2696533203125,58.06986999511719 L607.089111328125,58.0800666809082 L608.3994140625,58.12635803222656 L610.14990234375,58.219215393066406 L612.1961669921875,58.36055374145508 L613.9693603515625,58.50074768066406 L615.1399536132812,58.60700607299805 M620.938720703125,59.708824157714844 L620.759765625,59.60341262817383 L620.3524780273438,59.476932525634766 L619.662109375,59.418704986572266 L618.706298828125,59.55593490600586 L617.553955078125,59.966861724853516 L616.3414306640625,60.684837341308594 L615.239501953125,61.67508316040039 L614.4315185546875,62.86481857299805 L614.0706787109375,64.13534545898438 L614.2318115234375,65.34822082519531 L614.9202880859375,66.36121368408203 L616.0740966796875,67.04698944091797 L617.5781860351562,67.3236312866211 L619.2783813476562,67.15597534179688 L620.9806518554688,66.54167938232422 L622.471435546875,65.52710723876953 L623.5774536132812,64.21615600585938 L624.1729125976562,62.74308395385742 L624.2227783203125,61.27513885498047 L623.7498779296875,59.96418380737305 L622.8765258789062,58.92353057861328 L621.7891235351562,58.206207275390625 L620.8494262695312,57.8098258972168 L620.2468872070312,57.65092468261719 M628.4008178710938,57.51263427734375 L628.273193359375,57.49047088623047 L628.0707397460938,57.601261138916016 L627.8123168945312,57.97574234008789 L627.5529174804688,58.720619201660156 L627.3231811523438,59.82707214355469 L627.172607421875,61.21568298339844 L627.1448974609375,62.73448944091797 L627.3016967773438,64.2246322631836 L627.6700439453125,65.51515197753906 L628.2498168945312,66.46253967285156 L629.0225219726562,66.95294189453125 L629.96826171875,66.92564392089844 L631.0330810546875,66.3580093383789 L632.1624755859375,65.31900024414062 L633.273193359375,63.94123840332031 L634.2539672851562,62.417999267578125 L635.0184936523438,60.95664978027344 L635.538330078125,59.72703170776367 L635.8132934570312,58.82527542114258 L635.8848266601562,58.330265045166016 L635.801025390625,58.27296447753906 L635.5997314453125,58.688987731933594 L635.33642578125,59.58884048461914 L635.1083984375,60.90026092529297 L635.01318359375,62.459747314453125 L635.1309814453125,64.0656967163086 L635.5262451171875,65.48063659667969 L636.2212524414062,66.53367614746094 L637.2010498046875,67.12239074707031 L638.4093627929688,67.20111083984375 L639.7342529296875,66.77217102050781 L641.018798828125,65.87725830078125 L642.1343383789062,64.59150695800781 L642.9892578125,63.04140090942383 L643.5560302734375,61.385658264160156 L643.8510131835938,59.792293548583984 L643.9278564453125,58.4211540222168 L643.8548583984375,57.368690490722656 L643.7379150390625,56.707027435302734 L643.6444091796875,56.38846969604492 M649.420166015625,57.10026168823242 L649.3507080078125,57.31178283691406 L649.2193603515625,57.808631896972656 L649.0081787109375,58.63813400268555 L648.7296142578125,59.751670837402344 L648.38525390625,61.04438018798828 L648.0234375,62.40315246582031 L647.7122802734375,63.71061325073242 L647.4966430664062,64.85144805908203 L647.3863525390625,65.71121978759766 L647.3863525390625,66.19792938232422 L647.4732666015625,66.23902130126953 L647.664794921875,65.81224822998047 L647.9993896484375,64.94058990478516 L648.5073852539062,63.70736312866211 L649.2117919921875,62.25547790527344 L650.1270751953125,60.74341583251953 L651.227783203125,59.307159423828125 L652.4711303710938,58.06004333496094 L653.7750854492188,57.08055114746094 L655.0523681640625,56.432769775390625 L656.2294311523438,56.1606330871582 L657.2488403320312,56.27967834472656 L658.0847778320312,56.77241516113281 L658.721923828125,57.60672378540039 L659.1311645507812,58.714988708496094 L659.3216552734375,60.012577056884766 L659.3311767578125,61.40079879760742 L659.2357177734375,62.80712890625 L659.1419677734375,64.13725280761719 L659.12646484375,65.31889343261719 L659.1705932617188,66.17955780029297 L659.2371826171875,66.67057800292969 " fill="none" stroke="black" stroke-linecap="round" stroke-width="2" /><path d="M0,0 M444.745849609375,107.41938018798828 L444.66192626953125,108.12385559082031 L444.51934814453125,109.47745513916016 L444.33111572265625,111.50760650634766 L444.1363525390625,114.02169036865234 L443.9829406738281,116.88775634765625 L443.9444885253906,119.90290069580078 L444.08795166015625,122.82454681396484 L444.4772644042969,125.37913513183594 L445.14642333984375,127.315673828125 L446.072021484375,128.44677734375 L447.20233154296875,128.7141876220703 L448.452880859375,128.16372680664062 L449.71258544921875,126.91856384277344 L450.8734130859375,125.19587707519531 L451.8580627441406,123.26148986816406 L452.6080627441406,121.39405059814453 L453.10565185546875,119.83195495605469 L453.3710021972656,118.75234985351562 L453.4507141113281,118.24030303955078 L453.3994140625,118.33358001708984 L453.2936096191406,119.0125961303711 L453.21875,120.22651672363281 L453.25958251953125,121.84652709960938 L453.50091552734375,123.70308685302734 L454.013671875,125.56957244873047 L454.8109130859375,127.22476959228516 L455.86181640625,128.46360778808594 L457.09222412109375,129.151611328125 L458.3990478515625,129.20037841796875 L459.684326171875,128.58428955078125 L460.87103271484375,127.3099365234375 L461.8972473144531,125.43656158447266 L462.7066650390625,123.05940246582031 L463.26458740234375,120.34583282470703 L463.5508117675781,117.521728515625 L463.57177734375,114.82746124267578 L463.34600830078125,112.47080993652344 L462.9143981933594,110.57747650146484 L462.3057861328125,109.16703796386719 L461.59014892578125,108.28509521484375 L460.8592529296875,107.95121765136719 L460.2182312011719,108.12820434570312 L459.7728271484375,108.54440307617188 L459.5449523925781,108.94883728027344 M471.7947082519531,119.19708251953125 L471.5942077636719,118.86251068115234 L471.1798400878906,118.40286254882812 L470.51824951171875,117.9919662475586 L469.6556396484375,117.89411163330078 L468.6449890136719,118.25080871582031 L467.57879638671875,119.12757873535156 L466.5628967285156,120.48629760742188 L465.7212219238281,122.2145004272461 L465.161865234375,124.12300872802734 L464.9713134765625,125.98941040039062 L465.1705627441406,127.60293579101562 L465.73822021484375,128.78335571289062 L466.6094970703125,129.39651489257812 L467.7073059082031,129.36761474609375 L468.94293212890625,128.67172241210938 L470.21563720703125,127.35225677490234 L471.408935546875,125.53153991699219 L472.420166015625,123.40502166748047 L473.17169189453125,121.21831512451172 L473.6531066894531,119.23637390136719 L473.8977966308594,117.66384887695312 L473.9586486816406,116.63638305664062 L473.8946838378906,116.20954895019531 L473.7597961425781,116.40013885498047 L473.5950927734375,117.19316101074219 L473.45721435546875,118.5340805053711 L473.3882751464844,120.29216003417969 L473.4422607421875,122.31005859375 L473.659912109375,124.3988037109375 L474.0675048828125,126.39251708984375 L474.647705078125,128.15478515625 L475.39117431640625,129.5015869140625 L476.2395324707031,130.28294372558594 L477.141845703125,130.46067810058594 L477.8861083984375,130.2692413330078 L478.36590576171875,129.97535705566406 M480.558349609375,107.37528991699219 L480.4797668457031,107.5859603881836 L480.35418701171875,108.1618423461914 L480.19866943359375,109.25576782226562 L480.0388488769531,110.907958984375 L479.8887023925781,113.05134582519531 L479.76806640625,115.54905700683594 L479.70361328125,118.22181701660156 L479.7417297363281,120.91211700439453 L479.9059753417969,123.42959594726562 L480.17822265625,125.59102630615234 L480.451904296875,127.10832977294922 L480.64898681640625,127.93789672851562 M486.22991943359375,107.7813949584961 L486.24462890625,108.13316345214844 L486.2409973144531,108.93473815917969 L486.2008361816406,110.29208374023438 L486.1160888671875,112.16766357421875 L486.0005798339844,114.46173095703125 L485.8819885253906,117.02084350585938 L485.7811279296875,119.65064239501953 L485.71893310546875,122.17683410644531 L485.7193908691406,124.41441345214844 L485.8013916015625,126.22260284423828 L485.9141540527344,127.4286880493164 L486.0171203613281,128.0600128173828 M489.51385498046875,119.37427520751953 L488.89276123046875,119.41726684570312 L487.88458251953125,119.63707733154297 L486.6515197753906,120.12902069091797 L485.50750732421875,120.91754150390625 L484.6271057128906,121.91596984863281 L484.14080810546875,122.98810577392578 L484.0987548828125,123.99530792236328 L484.52978515625,124.83023071289062 L485.42291259765625,125.4232177734375 L486.6994934082031,125.73834991455078 L488.2506408691406,125.78807067871094 L489.94830322265625,125.560302734375 L491.61895751953125,125.08318328857422 L493.10260009765625,124.40592193603516 L494.17034912109375,123.76244354248047 L494.76434326171875,123.30631256103516 M494.8162841796875,118.69288635253906 L494.724365234375,118.83740234375 L494.636474609375,119.24053192138672 L494.60302734375,119.9908218383789 L494.6689453125,121.07257080078125 L494.7993469238281,122.37171936035156 L494.9646911621094,123.75373840332031 L495.1539306640625,125.07728576660156 L495.3715515136719,126.20597076416016 L495.6116943359375,127.05696105957031 L495.8197326660156,127.57534790039062 L495.953369140625,127.80828857421875 M495.2779235839844,109.70367431640625 L495.29833984375,109.53809356689453 L495.3567810058594,109.39947509765625 L495.42974853515625,109.32504272460938 L495.49383544921875,109.35201263427734 M499.8789978027344,118.79297637939453 L499.9271240234375,118.814208984375 L499.99798583984375,118.96565246582031 L500.07366943359375,119.36862182617188 L500.1258544921875,120.12073516845703 L500.15301513671875,121.22976684570312 L500.1654357910156,122.62140655517578 L500.18780517578125,124.13109588623047 L500.2348937988281,125.5614242553711 L500.30914306640625,126.74966430664062 L500.4112548828125,127.56794738769531 L500.53863525390625,127.91915893554688 L500.7213134765625,127.74588012695312 L501.0046691894531,127.00564575195312 L501.425048828125,125.72348022460938 L501.9941711425781,124.06482696533203 L502.7004089355469,122.25105285644531 L503.49615478515625,120.5168685913086 L504.3562316894531,119.05303955078125 L505.24810791015625,117.96127319335938 L506.1263122558594,117.28024291992188 L506.9429626464844,117.0674057006836 L507.6404724121094,117.33877563476562 L508.1785888671875,118.09656524658203 L508.5556945800781,119.34008026123047 L508.7855529785156,120.9384994506836 L508.897705078125,122.62899017333984 L508.9232482910156,124.1309585571289 L508.9263610839844,125.1492919921875 L508.9764404296875,125.55022430419922 L509.131591796875,125.46312713623047 L509.3290710449219,125.16981506347656 L509.5032653808594,124.89537048339844 M515.8421630859375,118.71543884277344 L515.8153686523438,118.24903106689453 L515.6517944335938,117.59501647949219 L515.2501220703125,116.9526138305664 L514.5765991210938,116.63221740722656 L513.6901245117188,116.7493667602539 L512.7335205078125,117.3409194946289 L511.88165283203125,118.31875610351562 L511.296875,119.54328155517578 L511.08575439453125,120.8086929321289 L511.313720703125,121.90914916992188 L511.9676818847656,122.66655731201172 L512.9963989257812,122.97046661376953 L514.28466796875,122.77163696289062 L515.6864624023438,122.10760498046875 L517.029541015625,121.09283447265625 L518.1549072265625,119.9067153930664 L518.9622802734375,118.75312042236328 L519.4290161132812,117.80227661132812 L519.5914306640625,117.16885375976562 L519.5401611328125,116.93753814697266 L519.3690185546875,117.16411590576172 L519.1649169921875,117.88954162597656 L519.0233154296875,119.12867736816406 L519.0035400390625,120.82965087890625 L519.1348876953125,122.91556549072266 L519.4116821289062,125.29325103759766 L519.7776489257812,127.84151458740234 L520.1608276367188,130.4186553955078 L520.4747314453125,132.87527465820312 L520.62060546875,135.0406494140625 L520.5214233398438,136.78977966308594 L520.1322631835938,138.05609130859375 L519.4400024414062,138.82485961914062 L518.4878540039062,139.13125610351562 L517.3318481445312,139.0469970703125 L516.0496215820312,138.6409912109375 L514.7459106445312,137.9847869873047 L513.5361938476562,137.14303588867188 L512.5996704101562,136.1092529296875 L512.0941162109375,134.9139404296875 L512.0863647460938,133.6205291748047 L512.3612060546875,132.53192138671875 L512.6859741210938,131.82632446289062 M535.4291381835938,127.57711029052734 L535.5713500976562,127.15066528320312 L535.864013671875,126.26123809814453 L536.3106079101562,124.84456634521484 L536.8303833007812,122.97015380859375 L537.3374633789062,120.71736145019531 L537.7630615234375,118.20779418945312 L538.069091796875,115.56849670410156 L538.2608032226562,112.94947814941406 L538.3626708984375,110.50357818603516 L538.388916015625,108.37283325195312 L538.354736328125,106.6695556640625 L538.2538452148438,105.50943756103516 L538.0765991210938,105.0 L537.818603515625,105.23186492919922 L537.4814453125,106.25106048583984 L537.093505859375,108.04020690917969 L536.6949462890625,110.48580932617188 L536.3287963867188,113.4500503540039 L536.0547485351562,116.7690200805664 L535.915283203125,120.2649917602539 L535.9340209960938,123.76010131835938 L536.099365234375,127.05081939697266 L536.3573608398438,129.93585205078125 L536.646728515625,132.20419311523438 L536.915283203125,133.7210235595703 L537.1288452148438,134.46319580078125 L537.2703857421875,134.65618896484375 L537.3451538085938,134.5749969482422 M532.533447265625,120.43759155273438 L532.7901611328125,120.3310317993164 L533.39306640625,120.1480712890625 L534.4249267578125,119.91981506347656 L535.9058837890625,119.69532775878906 L537.724853515625,119.49901580810547 L539.6708984375,119.33370971679688 L541.2623291015625,119.21475219726562 L542.2553100585938,119.14046478271484 M550.5502319335938,117.88410186767578 L550.3687744140625,117.73936462402344 L549.9942016601562,117.55525970458984 L549.3880004882812,117.43843841552734 L548.5615234375,117.55328369140625 L547.5487670898438,118.00140380859375 L546.4481811523438,118.81925201416016 L545.39111328125,119.95308685302734 L544.5386352539062,121.28607940673828 L544.0327758789062,122.66100311279297 L543.9559326171875,123.92113494873047 L544.3300170898438,124.90261840820312 L545.141845703125,125.47979736328125 L546.3106079101562,125.56752014160156 L547.7098388671875,125.1314468383789 L549.1966552734375,124.2135238647461 L550.6157836914062,122.91612243652344 L551.8287353515625,121.36734771728516 L552.757080078125,119.7443618774414 L553.3590698242188,118.2266616821289 L553.6411743164062,116.96334838867188 L553.6536865234375,116.0821762084961 L553.4600830078125,115.66941833496094 L553.13720703125,115.77006530761719 L552.7550048828125,116.40369415283203 L552.388671875,117.52704620361328 L552.1283569335938,119.00983428955078 L552.0491333007812,120.67440795898438 L552.2041015625,122.3201904296875 L552.6300659179688,123.77108764648438 L553.3145141601562,124.8947525024414 L554.2012939453125,125.61051177978516 L555.26220703125,125.79940032958984 L556.4154663085938,125.43114471435547 L557.5653076171875,124.568359375 L558.4773559570312,123.62372589111328 L559.04150390625,122.90798950195312 M562.0480346679688,114.23316192626953 L561.574951171875,114.27595520019531 L560.798583984375,114.46739959716797 L559.824462890625,114.89129638671875 L558.9039916992188,115.57771301269531 L558.1990966796875,116.46684265136719 L557.866455078125,117.46282958984375 L558.01416015625,118.45408630371094 L558.683837890625,119.35841369628906 L559.8184814453125,120.1427993774414 L561.2864379882812,120.81866455078125 L562.8770141601562,121.425537109375 L564.3615112304688,122.02763366699219 L565.5316772460938,122.66007995605469 L566.2237548828125,123.3360824584961 L566.3677978515625,124.0490951538086 L565.986328125,124.76890563964844 L565.1615600585938,125.4468994140625 L564.0435791015625,126.04412841796875 L562.808349609375,126.49995422363281 L561.6333618164062,126.74678039550781 L560.6817016601562,126.76651763916016 L560.0379638671875,126.59134674072266 L559.6964111328125,126.35360717773438 L559.5748901367188,126.16857147216797 M571.8263549804688,107.38949584960938 L571.762939453125,107.71820068359375 L571.6552124023438,108.40921783447266 L571.5203857421875,109.5252456665039 L571.3960571289062,111.0267562866211 L571.3114013671875,112.86289978027344 L571.2661743164062,114.94056701660156 L571.2560424804688,117.14482879638672 L571.2841796875,119.34088897705078 L571.3671875,121.37970733642578 L571.53515625,123.1370849609375 L571.8036499023438,124.5199966430664 L572.157958984375,125.40259552001953 L572.5603637695312,125.71842193603516 L572.9578247070312,125.48281860351562 L573.2625732421875,124.99784851074219 L573.4447631835938,124.54393768310547 " fill="none" stroke="black" stroke-linecap="round" stroke-width="2" /><path d="M0,0 M455.60565185546875,168.63662719726562 L455.6541442871094,169.03761291503906 L455.71722412109375,169.85971069335938 L455.7642517089844,171.1739044189453 L455.77142333984375,172.929931640625 L455.7506408691406,175.08656311035156 L455.74078369140625,177.54891967773438 L455.7598876953125,180.20269775390625 L455.8402099609375,182.90292358398438 L455.9827575683594,185.4772491455078 L456.17724609375,187.73756408691406 L456.4037780761719,189.55894470214844 L456.637451171875,190.77743530273438 L456.8326721191406,191.32594299316406 L456.96697998046875,191.24525451660156 L457.03753662109375,190.85519409179688 L457.05841064453125,190.44085693359375 M446.4888916015625,168.56126403808594 L446.59027099609375,168.38922119140625 L446.988037109375,168.12046813964844 L447.845703125,167.79408264160156 L449.247314453125,167.48146057128906 L451.1548156738281,167.20016479492188 L453.4490051269531,166.9353485107422 L455.98223876953125,166.6643829345703 L458.58697509765625,166.38052368164062 L461.0882568359375,166.0691375732422 L463.3328857421875,165.743408203125 L465.2142639160156,165.43280029296875 L466.5878601074219,165.17849731445312 L467.37786865234375,165.02679443359375 L467.5764465332031,165.0 L467.4190368652344,165.04469299316406 L467.15899658203125,165.1094512939453 M450.3768005371094,178.7706756591797 L450.6435241699219,178.78904724121094 L451.2433166503906,178.72972106933594 L452.2129211425781,178.5364990234375 L453.5489807128906,178.1799774169922 L455.15106201171875,177.72171020507812 L456.87939453125,177.2576904296875 L458.3134765625,176.90664672851562 L459.2367248535156,176.70631408691406 M469.9963073730469,178.2489013671875 L469.8111572265625,177.98143005371094 L469.41571044921875,177.61192321777344 L468.7769470214844,177.28890991210938 L467.91796875,177.2350311279297 L466.8903503417969,177.57859802246094 L465.7859802246094,178.39598083496094 L464.7317810058594,179.65921020507812 L463.8583679199219,181.27122497558594 L463.3039855957031,183.05625915527344 L463.1473693847656,184.795166015625 L463.4284973144531,186.26272583007812 L464.1289978027344,187.2880401611328 L465.1854553222656,187.75509643554688 L466.4775085449219,187.60235595703125 L467.8750305175781,186.834716796875 L469.22174072265625,185.5386505126953 L470.38836669921875,183.860107421875 L471.27783203125,182.00375366210938 L471.85107421875,180.21275329589844 L472.1279602050781,178.67208862304688 L472.1773681640625,177.51210021972656 L472.0831604003906,176.80947875976562 L471.936279296875,176.61184692382812 L471.79510498046875,176.9327850341797 L471.7086181640625,177.79373168945312 L471.7095642089844,179.1292266845703 L471.8106994628906,180.793701171875 L472.0548095703125,182.61500549316406 L472.4624938964844,184.39984130859375 L473.0205993652344,185.96726989746094 L473.55413818359375,187.0899200439453 L473.9352722167969,187.71694946289062 M482.2810363769531,177.04624938964844 L482.1003723144531,176.8386993408203 L481.753662109375,176.6121826171875 L481.2163391113281,176.52134704589844 L480.5159606933594,176.77806091308594 L479.67449951171875,177.46542358398438 L478.7584533691406,178.59310913085938 L477.86773681640625,180.08090209960938 L477.1456298828125,181.81053161621094 L476.72857666015625,183.6140594482422 L476.7264709472656,185.3363800048828 L477.1751403808594,186.83255004882812 L478.1251525878906,187.9521484375 L479.51123046875,188.59951782226562 L481.203369140625,188.7703094482422 L482.7041320800781,188.65130615234375 L483.71234130859375,188.44937133789062 M487.7789306640625,182.27513122558594 L487.98211669921875,182.3125 L488.4203796386719,182.24916076660156 L489.1301574707031,181.99493408203125 L490.05621337890625,181.49188232421875 L491.0933837890625,180.78167724609375 L492.10943603515625,179.95079040527344 L492.9591064453125,179.06192016601562 L493.5240173339844,178.17221069335938 L493.7174072265625,177.346923828125 L493.5101623535156,176.6811065673828 L492.905029296875,176.28688049316406 L491.97119140625,176.2771759033203 L490.8188171386719,176.70762634277344 L489.5978698730469,177.5960693359375 L488.46051025390625,178.87782287597656 L487.5538330078125,180.46011352539062 L486.98028564453125,182.20558166503906 L486.81341552734375,183.9613800048828 L487.0696105957031,185.57008361816406 L487.8055114746094,186.8697052001953 L488.9822998046875,187.726806640625 L490.4783020019531,188.1110076904297 L491.8308410644531,188.16314697265625 L492.7491149902344,188.06675720214844 M501.8072509765625,175.67034912109375 L501.5469970703125,175.47520446777344 L501.0304870605469,175.28512573242188 L500.2630920410156,175.24554443359375 L499.36737060546875,175.50564575195312 L498.4923400878906,176.06982421875 L497.80908203125,176.89031982421875 L497.4730529785156,177.86900329589844 L497.6028137207031,178.92709350585938 L498.26177978515625,179.9849090576172 L499.4395751953125,180.9866485595703 L500.996337890625,181.90638732910156 L502.6963806152344,182.75213623046875 L504.2462463378906,183.5332794189453 L505.380859375,184.26116943359375 L505.94366455078125,184.92149353027344 L505.9180908203125,185.50790405273438 L505.3500671386719,186.00918579101562 L504.35955810546875,186.4224395751953 L503.07830810546875,186.74734497070312 L501.635986328125,186.97311401367188 L500.2054138183594,187.08233642578125 L498.9575500488281,187.07955932617188 L498.0792541503906,187.01651000976562 L497.610595703125,186.94509887695312 M517.1635131835938,177.56671142578125 L517.15869140625,177.8302459716797 L517.14453125,178.44186401367188 L517.1303100585938,179.50660705566406 L517.1265258789062,181.03529357910156 L517.1557006835938,183.0025177001953 L517.2232666015625,185.30178833007812 L517.3231811523438,187.7967987060547 L517.4235229492188,190.33425903320312 L517.5054931640625,192.7178192138672 L517.5623779296875,194.75672912597656 L517.6129150390625,196.3114013671875 L517.658935546875,197.2791290283203 L517.702880859375,197.6287841796875 L517.71826171875,197.37515258789062 L517.68310546875,196.53558349609375 L517.5951538085938,195.1595916748047 L517.4749755859375,193.35247802734375 L517.3380737304688,191.22337341308594 L517.2174072265625,188.90196228027344 L517.1395874023438,186.50338745117188 L517.1322021484375,184.12681579589844 L517.232421875,181.85560607910156 L517.49560546875,179.77032470703125 L517.9746704101562,177.92529296875 L518.7140502929688,176.3909149169922 L519.72021484375,175.231689453125 L520.9544677734375,174.51551818847656 L522.3185424804688,174.2765350341797 L523.6865844726562,174.51251220703125 L524.9215698242188,175.16433715820312 L525.9135131835938,176.1543731689453 L526.5700073242188,177.36734008789062 L526.8453979492188,178.6798858642578 L526.7186889648438,179.9734649658203 L526.2022094726562,181.15769958496094 L525.33740234375,182.15562438964844 L524.2308349609375,182.92987060546875 L522.9959716796875,183.45465087890625 L521.7744750976562,183.72840881347656 L520.74658203125,183.7529296875 L520.0504150390625,183.5659637451172 L519.7481079101562,183.22134399414062 L519.7352905273438,182.8743896484375 L519.845703125,182.62576293945312 M534.264404296875,176.29928588867188 L534.1709594726562,175.98696899414062 L533.931884765625,175.56358337402344 L533.49853515625,175.18264770507812 L532.8963012695312,175.06358337402344 L532.1937255859375,175.3075714111328 L531.4876098632812,175.96714782714844 L530.8688354492188,177.0120849609375 L530.3954467773438,178.35023498535156 L530.0974731445312,179.8269500732422 L530.0164184570312,181.25184631347656 L530.177490234375,182.46908569335938 L530.592529296875,183.35084533691406 L531.2604370117188,183.81443786621094 L532.1439819335938,183.79534912109375 L533.1681518554688,183.27835083007812 L534.2334594726562,182.30484008789062 L535.2199096679688,180.99244689941406 L536.0158081054688,179.47314453125 L536.5715942382812,177.9305877685547 L536.8968505859375,176.52545166015625 L537.0348510742188,175.39108276367188 L537.03662109375,174.63275146484375 L536.9387817382812,174.3134002685547 L536.75634765625,174.4425048828125 L536.5316162109375,175.04551696777344 L536.33154296875,176.08493041992188 L536.2003784179688,177.45230102539062 L536.2122192382812,179.02809143066406 L536.40673828125,180.6308135986328 L536.7716674804688,182.0949249267578 L537.158203125,183.17654418945312 L537.4564819335938,183.80006408691406 M547.6354370117188,173.51882934570312 L547.399169921875,173.08326721191406 L546.9130859375,172.50265502929688 L546.1492919921875,171.97117614746094 L545.1843872070312,171.7540283203125 L544.1316528320312,171.9071502685547 L543.1610717773438,172.40316772460938 L542.4473266601562,173.1379852294922 L542.1663208007812,174.02589416503906 L542.4240112304688,174.9620361328125 L543.2442016601562,175.87445068359375 L544.5452270507812,176.72427368164062 L546.1622924804688,177.50997924804688 L547.8780517578125,178.25929260253906 L549.4840698242188,179.00991821289062 L550.7919921875,179.76376342773438 L551.6778564453125,180.50978088378906 L552.076416015625,181.20321655273438 L551.960693359375,181.80970764160156 L551.34716796875,182.3116912841797 L550.2885131835938,182.70248413085938 L548.8937377929688,182.97091674804688 L547.3388671875,183.1192169189453 L545.8375854492188,183.1482696533203 L544.6312255859375,183.0596160888672 L543.8972778320312,182.86627197265625 L543.692626953125,182.5905303955078 L543.8197021484375,182.32611083984375 L544.04931640625,182.1378631591797 M558.1860961914062,172.37644958496094 L558.0908813476562,171.95736694335938 L557.787109375,171.3988494873047 L557.1767578125,170.8875274658203 L556.2442626953125,170.66233825683594 L555.0906372070312,170.75558471679688 L553.9130859375,171.1415557861328 L552.9417114257812,171.7315216064453 L552.387939453125,172.4580535888672 L552.402099609375,173.25314331054688 L553.0523071289062,174.04623413085938 L554.3300170898438,174.79754638671875 L556.108642578125,175.50436401367188 L558.1553344726562,176.18601989746094 L560.17236328125,176.86151123046875 L561.8590087890625,177.5435333251953 L562.98779296875,178.21466064453125 L563.4635009765625,178.8519744873047 L563.2683715820312,179.4404754638672 L562.4701538085938,179.9689178466797 L561.1505737304688,180.4103240966797 L559.4912719726562,180.7484588623047 L557.7298583984375,180.97195434570312 L556.3147583007812,181.08750915527344 L555.4522094726562,181.1293487548828 " fill="none" stroke="black" stroke-linecap="round" stroke-width="2" /><path d="M0,0 M395.9852600097656,247.3694610595703 L396.121826171875,246.85159301757812 L396.4290771484375,245.88719177246094 L396.9024963378906,244.46771240234375 L397.4957580566406,242.71617126464844 L398.1492614746094,240.68319702148438 L398.80560302734375,238.4232177734375 L399.45660400390625,236.0023956298828 L400.1077575683594,233.5364990234375 L400.7281494140625,231.1470947265625 L401.3047790527344,228.9884490966797 L401.80096435546875,227.19424438476562 L402.17431640625,225.8721923828125 L402.4220275878906,225.12075805664062 L402.54705810546875,225.0 L402.58868408203125,225.5486602783203 L402.5964050292969,226.80435180664062 L402.615478515625,228.7283172607422 L402.68511962890625,231.22036743164062 L402.83306884765625,234.11656188964844 L403.0714416503906,237.2024383544922 L403.4200744628906,240.26983642578125 L403.8428649902344,243.13885498046875 L404.2877197265625,245.65553283691406 L404.6732482910156,247.6563262939453 L404.91497802734375,249.0167694091797 L404.9851379394531,249.7056121826172 L404.94970703125,249.89981079101562 L404.8775634765625,249.83880615234375 M396.46875,240.61669921875 L396.5054016113281,240.61019897460938 L396.7615051269531,240.6080780029297 L397.3639831542969,240.61109924316406 L398.45013427734375,240.5949249267578 L399.96075439453125,240.5298309326172 L401.7245788574219,240.38417053222656 L403.23773193359375,240.21421813964844 L404.2253112792969,240.0765380859375 M410.27642822265625,238.81851196289062 L410.283203125,239.25657653808594 L410.2789001464844,240.107666015625 L410.2408142089844,241.38018798828125 L410.1607360839844,242.9511260986328 L410.030029296875,244.70753479003906 L409.86859130859375,246.49398803710938 L409.71807861328125,248.14486694335938 L409.6083984375,249.4864959716797 L409.5513000488281,250.35890197753906 L409.5656433105469,250.66421508789062 L409.6415710449219,250.3587646484375 L409.80279541015625,249.44631958007812 L410.1053466796875,248.00901794433594 L410.5950927734375,246.2019500732422 L411.2920837402344,244.21702575683594 L412.20074462890625,242.2689971923828 L413.261962890625,240.54623413085938 L414.4001770019531,239.20066833496094 L415.54986572265625,238.35130310058594 L416.62982177734375,238.07217407226562 L417.5697326660156,238.37933349609375 L418.32318115234375,239.23866271972656 L418.8340148925781,240.5598907470703 L419.0827941894531,242.22152709960938 L419.1042785644531,244.07069396972656 L418.954833984375,245.94534301757812 L418.7317199707031,247.67481994628906 L418.5954895019531,249.0706787109375 L418.6594543457031,249.99742126464844 L418.9953918457031,250.40850830078125 L419.43310546875,250.4564666748047 L419.7991943359375,250.34579467773438 M428.836181640625,241.771728515625 L428.782470703125,241.35430908203125 L428.62841796875,240.75338745117188 L428.3035583496094,240.12416076660156 L427.75836181640625,239.71424865722656 L426.9670104980469,239.6292266845703 L425.9541931152344,239.94482421875 L424.7961120605469,240.67959594726562 L423.6160583496094,241.83291625976562 L422.5589599609375,243.34194946289062 L421.7767333984375,245.07701110839844 L421.3948974609375,246.8679656982422 L421.488037109375,248.51705932617188 L422.06036376953125,249.81739807128906 L423.04931640625,250.6017608642578 L424.335205078125,250.76199340820312 L425.7720947265625,250.24435424804688 L427.2293701171875,249.08006286621094 L428.59417724609375,247.34779357910156 L429.789794921875,245.15907287597656 L430.7879333496094,242.6734619140625 L431.57318115234375,240.05809020996094 L432.15447998046875,237.4790496826172 L432.55926513671875,235.12472534179688 L432.8062744140625,233.1474151611328 L432.92529296875,231.64208984375 L432.95709228515625,230.68968200683594 L432.9114990234375,230.33766174316406 L432.7978210449219,230.63047790527344 L432.6288757324219,231.6163330078125 L432.4171142578125,233.27244567871094 L432.2016296386719,235.46682739257812 L432.0284423828125,238.00933837890625 L431.91583251953125,240.67164611816406 L431.8846130371094,243.26138305664062 L431.9505310058594,245.6441192626953 L432.13916015625,247.7193603515625 L432.462158203125,249.40220642089844 L432.89892578125,250.63864135742188 L433.3032531738281,251.3892059326172 L433.58221435546875,251.73599243164062 M447.27740478515625,229.5948486328125 L447.3326110839844,229.73500061035156 L447.459228515625,230.09719848632812 L447.6441650390625,230.76968383789062 L447.84674072265625,231.791015625 L447.99884033203125,233.16790771484375 L448.072021484375,234.88145446777344 L448.05419921875,236.87554931640625 L447.9700622558594,239.0612030029297 L447.83636474609375,241.3067626953125 L447.6788330078125,243.46937561035156 L447.498291015625,245.4300537109375 L447.34332275390625,247.07687377929688 L447.247802734375,248.31663513183594 L447.24346923828125,249.10926818847656 L447.296875,249.5013885498047 L447.36614990234375,249.61874389648438 M453.59844970703125,225.48703002929688 L453.640380859375,225.589599609375 L453.70916748046875,225.93019104003906 L453.7771911621094,226.6038818359375 L453.78887939453125,227.6417694091797 L453.7185974121094,228.92617797851562 L453.58648681640625,230.28631591796875 L453.4571533203125,231.38218688964844 L453.3727111816406,232.05564880371094 M457.56085205078125,241.57037353515625 L457.58892822265625,242.2692108154297 L457.5931701660156,243.4918212890625 L457.54229736328125,245.13722229003906 L457.4359130859375,246.90631103515625 L457.3315734863281,248.6135711669922 L457.265625,250.08387756347656 L457.2652587890625,251.2156982421875 L457.3166198730469,251.89633178710938 L457.3895263671875,252.0245819091797 L457.4842529296875,251.53912353515625 L457.62872314453125,250.43569946289062 L457.8682861328125,248.8198699951172 L458.2757873535156,246.88404846191406 L458.90692138671875,244.8472442626953 L459.7835693359375,242.90447998046875 L460.8712463378906,241.21449279785156 L462.08953857421875,239.91180419921875 L463.3330078125,239.11904907226562 L464.5018615722656,238.91165161132812 L465.51922607421875,239.31768798828125 L466.3204650878906,240.28968811035156 L466.8565673828125,241.7156219482422 L467.1390686035156,243.4325408935547 L467.21533203125,245.22340393066406 L467.1631774902344,246.8634033203125 L467.0817565917969,248.1650848388672 L467.04412841796875,248.97164916992188 L467.11199951171875,249.18600463867188 L467.34881591796875,248.7605438232422 L467.8095397949219,247.7029266357422 L468.52764892578125,246.13682556152344 L469.5089111328125,244.28892517089844 L470.716552734375,242.41575622558594 L472.0791015625,240.7522735595703 L473.49395751953125,239.4687957763672 L474.8619384765625,238.65516662597656 L476.09259033203125,238.34913635253906 L477.11761474609375,238.55868530273438 L477.89935302734375,239.25743103027344 L478.4134521484375,240.3776397705078 L478.663330078125,241.83726501464844 L478.68865966796875,243.5161590576172 L478.5611572265625,245.26577758789062 L478.41241455078125,246.90756225585938 L478.36309814453125,248.26319885253906 L478.4794921875,249.19961547851562 L478.6806945800781,249.7080535888672 L478.86871337890625,249.89108276367188 M490.70660400390625,230.3815155029297 L490.7246398925781,230.52749633789062 L490.7435302734375,230.96986389160156 L490.74365234375,231.84933471679688 L490.70989990234375,233.21728515625 L490.64361572265625,235.02862548828125 L490.53668212890625,237.1553955078125 L490.41900634765625,239.44520568847656 L490.3089599609375,241.7340850830078 L490.22344970703125,243.8456573486328 L490.1856689453125,245.62274169921875 L490.2027893066406,246.9561309814453 L490.258056640625,247.7678985595703 L490.36871337890625,248.01893615722656 L490.56036376953125,247.698486328125 L490.8973083496094,246.8143768310547 L491.453857421875,245.44888305664062 L492.28558349609375,243.7608184814453 L493.3902282714844,241.96022033691406 L494.70269775390625,240.26406860351562 L496.11572265625,238.86941528320312 L497.51519775390625,237.92405700683594 L498.78228759765625,237.52630615234375 L499.8530578613281,237.71995544433594 L500.6741638183594,238.49298095703125 L501.20538330078125,239.7683563232422 L501.44219970703125,241.41668701171875 L501.4231262207031,243.26918029785156 L501.2431640625,245.1385040283203 L501.0523986816406,246.83619689941406 L500.9603271484375,248.2139129638672 L500.9687805175781,249.1265411376953 L501.02825927734375,249.59190368652344 M510.4500732421875,239.28697204589844 L510.2219543457031,238.93582153320312 L509.7541198730469,238.5093994140625 L509.008544921875,238.22189331054688 L508.03338623046875,238.35105895996094 L506.8973388671875,238.97671508789062 L505.74755859375,240.0886688232422 L504.7594909667969,241.56118774414062 L504.105224609375,243.23370361328125 L503.8994445800781,244.90768432617188 L504.1828308105469,246.38726806640625 L504.8988037109375,247.4989013671875 L505.9529113769531,248.1292266845703 L507.2197265625,248.2139129638672 L508.57073974609375,247.7468719482422 L509.8629150390625,246.78550720214844 L510.97650146484375,245.45059204101562 L511.785888671875,243.91416931152344 L512.227294921875,242.37193298339844 L512.2959594726562,240.9943389892578 L512.05224609375,239.900634765625 L511.60888671875,239.14752197265625 L511.11383056640625,238.72869873046875 L510.718017578125,238.5615997314453 L510.4886474609375,238.53768920898438 M515.6806030273438,238.32582092285156 L515.7210083007812,238.55166625976562 L515.7615356445312,239.0752410888672 L515.7818603515625,239.98367309570312 L515.7559814453125,241.26528930664062 L515.68994140625,242.85044860839844 L515.60400390625,244.5776824951172 L515.5136108398438,246.23361206054688 L515.4385375976562,247.6212615966797 L515.3995361328125,248.58534240722656 L515.4052734375,249.0262451171875 L515.46728515625,248.9087677001953 L515.61328125,248.22808837890625 L515.8831787109375,247.028564453125 L516.3139038085938,245.437255859375 L516.9393310546875,243.64718627929688 L517.7596435546875,241.87562561035156 L518.7319946289062,240.31753540039062 L519.7919921875,239.12855529785156 L520.8682861328125,238.40574645996094 L521.8824462890625,238.20030212402344 L522.778564453125,238.5352783203125 L523.494384765625,239.37899780273438 L523.973876953125,240.63323974609375 L524.2077026367188,242.16563415527344 L524.2346801757812,243.78709411621094 L524.1278076171875,245.2932891845703 L523.9833374023438,246.51918029785156 L523.8612670898438,247.3251953125 L523.802490234375,247.60850524902344 L523.852294921875,247.32847595214844 L524.0579833984375,246.49203491210938 L524.4568481445312,245.17922973632812 L525.081787109375,243.5679473876953 L525.9151611328125,241.8704376220703 L526.9093627929688,240.2906951904297 L527.9932861328125,239.00186157226562 L529.0799560546875,238.1138458251953 L530.078857421875,237.685546875 L530.9188842773438,237.75909423828125 L531.5477905273438,238.3352813720703 L531.9522705078125,239.3778076171875 L532.16064453125,240.80215454101562 L532.233642578125,242.46270751953125 L532.2568359375,244.18368530273438 L532.3160400390625,245.78773498535156 L532.50634765625,247.1095733642578 L532.9052734375,248.0286407470703 L533.5634765625,248.46109008789062 L534.487548828125,248.3585205078125 L535.6378784179688,247.73597717285156 L536.9127807617188,246.65487670898438 L538.1926879882812,245.22171020507812 L539.3422241210938,243.57476806640625 L540.2404174804688,241.87391662597656 L540.8116455078125,240.2733917236328 L541.0330200195312,238.9272918701172 L540.9022827148438,237.95994567871094 L540.437744140625,237.46282958984375 L539.6787109375,237.49044799804688 L538.6971435546875,238.07408142089844 L537.6217651367188,239.1805419921875 L536.6365356445312,240.71728515625 L535.905029296875,242.52609252929688 L535.6210327148438,244.40594482421875 L535.8790283203125,246.1365509033203 L536.6508178710938,247.55418395996094 L537.5376586914062,248.4950408935547 L538.2318725585938,248.97402954101562 M547.189697265625,243.8737335205078 L547.2819213867188,243.82357788085938 L547.6283569335938,243.72821044921875 L548.3486328125,243.5869903564453 L549.4998779296875,243.40232849121094 L550.9595336914062,243.1827392578125 L552.5198364257812,242.92825317382812 L553.7762451171875,242.70584106445312 L554.5452880859375,242.5556182861328 M562.8237915039062,229.910400390625 L562.835205078125,230.0166015625 L562.8324584960938,230.33175659179688 L562.7831420898438,230.9705810546875 L562.6543579101562,231.9889678955078 L562.419189453125,233.3815460205078 L562.0745849609375,235.1196746826172 L561.6326904296875,237.13949584960938 L561.12255859375,239.32785034179688 L560.5972290039062,241.54144287109375 L560.1215209960938,243.57662963867188 L559.7442626953125,245.25021362304688 L559.4904174804688,246.44810485839844 L559.364501953125,247.12294006347656 L559.340576171875,247.26678466796875 L559.4065551757812,246.8950653076172 L559.5806884765625,246.0235137939453 L559.8983154296875,244.73141479492188 L560.4013671875,243.17079162597656 L561.1334228515625,241.53469848632812 L562.085205078125,240.00079345703125 L563.2119140625,238.70947265625 L564.4583740234375,237.75619506835938 L565.752197265625,237.2129364013672 L567.011962890625,237.131591796875 L568.16650390625,237.53834533691406 L569.1254272460938,238.39878845214844 L569.80078125,239.6380615234375 L570.1332397460938,241.14085388183594 L570.1027221679688,242.7699432373047 L569.7122802734375,244.37985229492188 L569.0015258789062,245.8381805419922 L568.009521484375,247.02523803710938 L566.7845458984375,247.8610076904297 L565.4041137695312,248.31336975097656 L563.9691162109375,248.4166259765625 L562.6326904296875,248.20541381835938 L561.5591430664062,247.75390625 L560.863037109375,247.15036010742188 L560.5280151367188,246.59921264648438 L560.4459228515625,246.22372436523438 M576.568359375,241.37461853027344 L576.376953125,241.07525634765625 L576.0245361328125,240.63636779785156 L575.5018310546875,240.1766815185547 L574.858154296875,239.90115356445312 L574.120361328125,239.92465209960938 L573.31494140625,240.3202667236328 L572.494384765625,241.1067657470703 L571.739013671875,242.24456787109375 L571.1384887695312,243.62110900878906 L570.7966918945312,245.08189392089844 L570.7847900390625,246.45382690429688 L571.114990234375,247.56565856933594 L571.7603759765625,248.2954559326172 L572.6461181640625,248.56527709960938 L573.688720703125,248.33914184570312 L574.79638671875,247.63653564453125 L575.8837890625,246.53236389160156 L576.8553466796875,245.14144897460938 L577.6265869140625,243.61659240722656 L578.1339721679688,242.12277221679688 L578.373291015625,240.81588745117188 L578.392333984375,239.803955078125 L578.2883911132812,239.14691162109375 L578.1611938476562,238.84657287597656 L578.0767822265625,238.8467254638672 L578.0584716796875,239.0832977294922 L578.1123657226562,239.49893188476562 L578.2444458007812,240.01551818847656 L578.4436645507812,240.5508270263672 L578.7012939453125,241.0262451171875 L579.010009765625,241.36221313476562 L579.3663940429688,241.53062438964844 L579.7752685546875,241.52084350585938 L580.2490844726562,241.33200073242188 L580.7685546875,240.96986389160156 L581.3033447265625,240.475341796875 L581.8193359375,239.91586303710938 L582.2753295898438,239.38706970214844 L582.629150390625,238.95779418945312 L582.8461303710938,238.68138122558594 L582.912109375,238.59991455078125 L582.8397216796875,238.7724609375 L582.65087890625,239.25650024414062 L582.3726806640625,240.07284545898438 L582.0474243164062,241.1717071533203 L581.73095703125,242.4498748779297 L581.50048828125,243.77000427246094 L581.4335327148438,244.998046875 L581.5848999023438,246.0274200439453 L581.9746704101562,246.7724609375 L582.593505859375,247.16818237304688 L583.4151611328125,247.18087768554688 L584.3865356445312,246.794189453125 L585.4427490234375,246.0393524169922 L586.515869140625,244.99179077148438 L587.5468139648438,243.75210571289062 L588.4758911132812,242.4313507080078 L589.257080078125,241.1549072265625 L589.8543701171875,240.02041625976562 L590.251953125,239.11387634277344 L590.45263671875,238.491455078125 L590.4945068359375,238.1992950439453 L590.403564453125,238.26657104492188 L590.2008666992188,238.7333984375 L589.913330078125,239.59542846679688 L589.5845947265625,240.7872772216797 L589.2803955078125,242.18287658691406 L589.1026000976562,243.63079833984375 L589.1257934570312,244.96649169921875 L589.3936157226562,246.0731201171875 L589.8847045898438,246.8545684814453 L590.5458984375,247.236083984375 L591.3065795898438,247.1768798828125 L592.124267578125,246.681396484375 L592.9491577148438,245.7944793701172 L593.745849609375,244.6175079345703 L594.4691162109375,243.27066040039062 L595.0942993164062,241.88629150390625 L595.6200561523438,240.5928192138672 L596.0614013671875,239.50672912597656 L596.4281005859375,238.70864868164062 L596.732666015625,238.2592315673828 L596.979736328125,238.194091796875 L597.1593017578125,238.53573608398438 L597.257568359375,239.28485107421875 L597.2388305664062,240.39817810058594 L597.0863037109375,241.77113342285156 L596.829345703125,243.25306701660156 L596.5317993164062,244.66427612304688 L596.2653198242188,245.83822631835938 L596.0779418945312,246.68341064453125 L595.987060546875,247.16107177734375 L595.9805908203125,247.26707458496094 L596.0534057617188,247.00108337402344 L596.2047119140625,246.36163330078125 L596.456787109375,245.36215209960938 L596.8321533203125,244.10350036621094 L597.3733520507812,242.71693420410156 L598.093017578125,241.33932495117188 L598.9776611328125,240.08139038085938 L599.98486328125,239.03781127929688 L601.061767578125,238.26416015625 L602.1447143554688,237.82119750976562 L603.1746826171875,237.74349975585938 L604.0750732421875,238.04446411132812 L604.7723999023438,238.6974639892578 L605.22412109375,239.66409301757812 L605.4187622070312,240.8714141845703 L605.3973388671875,242.1892547607422 L605.2359008789062,243.4691162109375 L605.050048828125,244.4496612548828 L604.9143676757812,245.02210998535156 M614.8815307617188,240.0992431640625 L614.7783203125,239.7449493408203 L614.5435180664062,239.23289489746094 L614.1141967773438,238.7038116455078 L613.449462890625,238.3752899169922 L612.5115356445312,238.32919311523438 L611.3325805664062,238.62692260742188 L610.0045776367188,239.2726593017578 L608.68017578125,240.24169921875 L607.5287475585938,241.47174072265625 L606.7064208984375,242.84825134277344 L606.3153076171875,244.2167510986328 L606.4014282226562,245.42755126953125 L606.949951171875,246.33740234375 L607.9200439453125,246.83123779296875 L609.2210693359375,246.8362274169922 L610.75390625,246.30258178710938 L612.3956298828125,245.22247314453125 L614.0370483398438,243.64639282226562 L615.5841674804688,241.6763458251953 L616.96875,239.45660400390625 L618.1236572265625,237.14031982421875 L619.0164794921875,234.86244201660156 L619.62353515625,232.77490234375 L619.9756469726562,231.02133178710938 L620.136474609375,229.70120239257812 L620.1707763671875,228.87747192382812 L620.1302490234375,228.56517028808594 L620.0343017578125,228.75564575195312 L619.8751220703125,229.47140502929688 L619.6463623046875,230.71690368652344 L619.3617553710938,232.43191528320312 L619.038818359375,234.5154571533203 L618.7273559570312,236.83938598632812 L618.4757690429688,239.2631072998047 L618.3278198242188,241.66342163085938 L618.3472290039062,243.9202880859375 L618.56396484375,245.88800048828125 L618.9547119140625,247.44467163085938 L619.3621215820312,248.46200561523438 L619.6649169921875,248.97381591796875 " fill="none" stroke="black" stroke-linecap="round" stroke-width="2" /></svg>