<?xml version="1.0" encoding="utf-8" ?>
<svg baseProfile="full" height="100%" version="1.1" viewBox="0,0,1000,120" width="100%" xmlns="http://www.w3.org/2000/svg" xmlns:ev="http://www.w3.org/2001/xml-events" xmlns:xlink="http://www.w3.org/1999/xlink"><defs /><rect fill="white" height="120" width="1000" x="0" y="0" /><path d="M0,0 M476.37286376953125,47.123939514160156 L476.2145080566406,46.76055908203125 L475.8917236328125,46.21541976928711 L475.3424987792969,45.61071014404297 L474.5262451171875,45.16739273071289 L473.3830261230469,45.0 L471.92913818359375,45.196659088134766 L470.2228088378906,45.7916145324707 L468.3912048339844,46.80064010620117 L466.5749816894531,48.185237884521484 L464.91168212890625,49.88608169555664 L463.5068359375,51.80717468261719 L462.46124267578125,53.832786560058594 L461.849365234375,55.839603424072266 L461.71954345703125,57.69203186035156 L462.0921936035156,59.28166580200195 L462.95587158203125,60.5367546081543 L464.2491149902344,61.41120529174805 L465.8804931640625,61.896217346191406 L467.76361083984375,62.02480697631836 L469.8072204589844,61.84306716918945 L471.8974914550781,61.4172477722168 L473.9088439941406,60.79750442504883 L475.6977233886719,60.04082489013672 L477.1255187988281,59.2006950378418 L478.1250305175781,58.350059509277344 L478.6767883300781,57.496604919433594 L478.88555908203125,56.81415939331055 L478.90106201171875,56.37166976928711 M472.7991943359375,52.46998596191406 L472.8206787109375,52.31798553466797 L473.02044677734375,52.040283203125 L473.5058288574219,51.64149475097656 L474.33050537109375,51.170875549316406 L475.41552734375,50.6718864440918 L476.60858154296875,50.216617584228516 L477.7987365722656,49.8653450012207 L478.88958740234375,49.65780258178711 L479.8128967285156,49.609153747558594 L480.5603332519531,49.716793060302734 L481.11639404296875,49.99579620361328 L481.47552490234375,50.484676361083984 L481.6813659667969,51.22401809692383 L481.7375183105469,52.22165298461914 L481.67218017578125,53.44329071044922 L481.54681396484375,54.822322845458984 L481.40594482421875,56.27052307128906 L481.3076477050781,57.70362091064453 L481.2848205566406,59.04605484008789 L481.33807373046875,60.220333099365234 L481.46533203125,61.14933395385742 L481.6419677734375,61.79389572143555 L481.8015441894531,62.15354919433594 L481.9131164550781,62.296607971191406 M483.34344482421875,53.504119873046875 L483.4102783203125,53.51681900024414 L483.5406799316406,53.651947021484375 L483.7351989746094,54.000701904296875 L483.9577331542969,54.60548782348633 L484.17633056640625,55.42037582397461 L484.3846740722656,56.36479568481445 L484.604736328125,57.352149963378906 L484.8260498046875,58.265220642089844 L485.04534912109375,58.996822357177734 L485.21929931640625,59.45421600341797 L485.3213806152344,59.65340042114258 L485.361083984375,59.67873001098633 M484.5780334472656,45.6035041809082 L484.6168212890625,45.61638259887695 L484.722412109375,45.70460510253906 L484.8533935546875,45.83087158203125 L484.96832275390625,45.95789337158203 M490.576904296875,51.0969352722168 L490.5418701171875,51.34314727783203 L490.4972229003906,51.91057586669922 L490.4871826171875,52.86549758911133 L490.54022216796875,54.139339447021484 L490.6759948730469,55.58951187133789 L490.92315673828125,57.05189895629883 L491.2528381347656,58.37947082519531 L491.6433410644531,59.47208023071289 L492.078369140625,60.26525115966797 L492.5168151855469,60.69881057739258 L492.95098876953125,60.71379089355469 L493.4166564941406,60.27159881591797 L493.9357604980469,59.36893844604492 L494.53717041015625,58.06659698486328 L495.2194519042969,56.48894500732422 L495.9673156738281,54.79001235961914 L496.74334716796875,53.12187194824219 L497.4978942871094,51.61955261230469 L498.16925048828125,50.372100830078125 L498.7215270996094,49.464115142822266 L499.11541748046875,48.942562103271484 L499.3779296875,48.78711700439453 L499.52850341796875,48.848628997802734 L499.5990905761719,48.98060607910156 M501.7799377441406,58.11482620239258 L501.9833984375,58.099578857421875 L502.4351806640625,57.96689987182617 L503.1796875,57.63044357299805 L504.15924072265625,57.03491973876953 L505.2858581542969,56.2092399597168 L506.4417724609375,55.201229095458984 L507.5231628417969,54.08452606201172 L508.43072509765625,52.95378494262695 L509.0942077636719,51.89216232299805 L509.4508972167969,50.977779388427734 L509.482666015625,50.27926254272461 L509.17327880859375,49.83509826660156 L508.50970458984375,49.689178466796875 L507.5041809082031,49.90654373168945 L506.2229309082031,50.524871826171875 L504.7970886230469,51.540225982666016 L503.430908203125,52.87617492675781 L502.3475036621094,54.4064826965332 L501.7173767089844,55.9753303527832 L501.6761474609375,57.442474365234375 L502.2832336425781,58.68301010131836 L503.5438232421875,59.599361419677734 L505.38250732421875,60.12364959716797 L507.7164306640625,60.22589874267578 L510.3227844238281,59.94921875 L512.9400634765625,59.40245819091797 L514.9947509765625,58.84670639038086 L516.239990234375,58.454105377197266 M532.8821411132812,49.25437927246094 L532.9071044921875,49.2736701965332 L532.9512939453125,49.437278747558594 L533.008544921875,49.86589050292969 L533.0707397460938,50.65068435668945 L533.1439819335938,51.7752571105957 L533.2576904296875,53.15889358520508 L533.4860229492188,54.676658630371094 L533.8779907226562,56.149566650390625 L534.4649047851562,57.41246795654297 L535.2461547851562,58.32813262939453 L536.1875610351562,58.79611587524414 L537.24267578125,58.759849548339844 L538.3846435546875,58.214813232421875 L539.5741577148438,57.18475341796875 L540.7579345703125,55.75327682495117 L541.8572387695312,54.054012298583984 L542.7940063476562,52.2657470703125 L543.5017700195312,50.575653076171875 L543.97998046875,49.14892578125 L544.2693481445312,48.0775146484375 L544.4358520507812,47.416080474853516 L544.52392578125,47.1961555480957 L544.5665283203125,47.45325469970703 L544.5750732421875,48.22301483154297 L544.5744018554688,49.482601165771484 L544.5909423828125,51.088619232177734 L544.6773071289062,52.8372688293457 L544.9078369140625,54.50638961791992 L545.315185546875,55.905914306640625 L545.8841552734375,56.931270599365234 L546.4273681640625,57.54706954956055 L546.8067626953125,57.82197570800781 M550.7728881835938,49.542137145996094 L550.8057861328125,49.734066009521484 L550.8639526367188,50.24811935424805 L550.9386596679688,51.20332336425781 L551.0048217773438,52.615543365478516 L551.04833984375,54.41019821166992 L551.0463256835938,56.475791931152344 L551.0074462890625,58.68708038330078 L550.9393310546875,60.90102005004883 L550.8804321289062,62.94354248046875 L550.8563232421875,64.65401458740234 L550.8693237304688,65.88780212402344 L550.8804321289062,66.53601837158203 L550.8387451171875,66.55856323242188 L550.70166015625,65.95271301269531 L550.4979858398438,64.74707794189453 L550.2908325195312,63.06155014038086 L550.169921875,61.04340744018555 L550.2217407226562,58.829097747802734 L550.5215454101562,56.5584831237793 L551.124267578125,54.353302001953125 L552.0459594726562,52.3085823059082 L553.2681884765625,50.535011291503906 L554.7278442382812,49.124053955078125 L556.3383178710938,48.138519287109375 L558.0231323242188,47.61318588256836 L559.6849365234375,47.544429779052734 L561.1942138671875,47.873809814453125 L562.4271850585938,48.51415252685547 L563.2412109375,49.36587142944336 L563.5336303710938,50.34635543823242 L563.272216796875,51.38227844238281 L562.467041015625,52.40555953979492 L561.1702270507812,53.333160400390625 L559.4964599609375,54.07878112792969 L557.604736328125,54.5986442565918 L555.6505737304688,54.8712043762207 L553.749755859375,54.89785385131836 L552.2715454101562,54.798057556152344 L551.3547973632812,54.67212677001953 " fill="none" stroke="black" stroke-linecap="round" stroke-width="2" /></svg>